<svg xmlns="http://www.w3.org/2000/svg" width="40.261" height="59.86" viewBox="0 0 40.261 59.86">
  <g id="man" transform="translate(-83.816)">
    <path id="Path_62" data-name="Path 62" d="M123.361,11.226a8.776,8.776,0,0,0-4.135-2.069A5.094,5.094,0,0,0,115.334,7.5a8.12,8.12,0,0,0-3.241.664l.194.235a7.349,7.349,0,0,0-3.747-.9c-5.789,0-10,4.59-11.226,6.085-3.324.918-6,3.193-6,6.509,0,3.5,1.779,10.66,2.507,13.441a3.747,3.747,0,0,0,3.117,5.83h.985a15.86,15.86,0,0,0,2.764,8.054v9.753l-1.33.3-1.335,3.054a1.669,1.669,0,0,0,.276,1.737c1.373,1.555,5.45,2.9,10.342,3.253,5.52.4,10.2-.6,11.178-2.274a1.08,1.08,0,0,0,.055-.927l-1.488-3.732,0,0-1.763-.474V54.051a13.12,13.12,0,0,0,10.309-12.811V26.99a6.847,6.847,0,0,0,1.874,1.128s4.5-15.429-5.446-16.893Z" transform="translate(-6.625 -6.623)" fill="#fff"/>
    <path id="Path_63" data-name="Path 63" d="M334.556,200.064a10.941,10.941,0,0,0-6.568-1.975l-1.7-.205.117.554a2.814,2.814,0,0,0,2.445,2.211,21.1,21.1,0,0,1,4.989,1.148.928.928,0,0,0,.356.07.937.937,0,0,0,.36-1.8Z" transform="translate(-214.124 -174.747)" fill="#beebeb"/>
    <circle id="Ellipse_29" data-name="Ellipse 29" cx="1.874" cy="1.874" r="1.874" transform="translate(100.626 26.182)" fill="#5ce8c4"/>
    <circle id="Ellipse_30" data-name="Ellipse 30" cx="1.874" cy="1.874" r="1.874" transform="translate(113.746 26.182)" fill="#5ce8c4"/>
    <path id="Path_64" data-name="Path 64" d="M125.994,18.747c-.04-4.157,2.5-6.764-2.634-7.521a8.776,8.776,0,0,0-4.135-2.069A5.094,5.094,0,0,0,115.334,7.5a8.12,8.12,0,0,0-3.241.664l.194.235a7.349,7.349,0,0,0-3.747-.9c-5.789,0-10,4.59-11.226,6.085-3.324.918-6,3.193-6,6.509,0,3.5,1.779,10.66,2.507,13.441a3.733,3.733,0,0,0-.624,2.327,3.873,3.873,0,0,0,3.925,3.5h.8a15.859,15.859,0,0,0,2.764,8.054v9.753l-1.33.3-1.335,3.054a1.668,1.668,0,0,0,.276,1.737c1.373,1.555,5.45,2.9,10.342,3.253,5.52.4,10.2-.6,11.178-2.274a1.08,1.08,0,0,0,.055-.927l-1.488-3.732,0,0-1.763-.474v-2.7a16.368,16.368,0,0,1-11.247-15.54V36.775a3.746,3.746,0,0,1,2.712-3.6,31.731,31.731,0,0,1,3.252-.766,2.872,2.872,0,0,0,2.413-2.724,61.011,61.011,0,0,0-8.376.9V20.621Z" transform="translate(-6.625 -6.623)" fill="#b8eadd"/>
    <path id="Path_65" data-name="Path 65" d="M356.932,39.314l-1.084,7.527s2.812,8.435,6.56,9.372C362.409,56.213,366.919,40.749,356.932,39.314Z" transform="translate(-240.227 -34.718)" fill="#beebeb"/>
    <path id="Path_66" data-name="Path 66" d="M275.611,22.864l-7.439,12.789C278.5,37.625,285.774,25.168,275.611,22.864Z" transform="translate(-162.802 -20.191)" fill="#beebeb"/>
    <path id="Path_67" data-name="Path 67" d="M115.333,7.5a9.361,9.361,0,0,0-3.372.721,7.634,7.634,0,0,0-3.423-.721c-5.825,0-10.333,4.914-11.35,6.118-3.266.94-5.871,3.2-5.871,6.475,0,4.393,2.46,12.887,2.46,12.887L96,31.867h3.749V24.285c4.838-.292,16.045-1.594,19.681-7.413,2.675-4.28.586-9.372-4.1-9.372Z" transform="translate(-6.624 -6.623)" fill="#a9e0d2"/>
    <path id="Path_68" data-name="Path 68" d="M112.4,8.053c-.177.063-.331.122-.439.168a7.634,7.634,0,0,0-3.423-.721c-5.825,0-10.333,4.914-11.35,6.118-3.266.94-5.871,3.2-5.871,6.475a44.61,44.61,0,0,0,1.4,8.826,28.14,28.14,0,0,1,7.032-.78V23.25a1.868,1.868,0,0,1,1.631-1.858c3.885-.493,13.364-2.307,13.364-8.268A5.883,5.883,0,0,0,112.4,8.053Z" transform="translate(-6.624 -6.623)" fill="#5ce8c4"/>
    <path id="Path_69" data-name="Path 69" d="M176.794,279.3a2.809,2.809,0,0,0-2.48,1.608,5.613,5.613,0,0,1-5.009,3.078H157.122a4.686,4.686,0,0,1-4.208-2.622,3.765,3.765,0,0,0-3.293-2.124l-1.829-.039a15.919,15.919,0,0,0,15.89,15.094A13.121,13.121,0,0,0,176.8,281.175V279.3Z" transform="translate(-56.496 -246.559)" fill="#b8eadd"/>
    <path id="Path_70" data-name="Path 70" d="M155.734,283.774a4.7,4.7,0,0,1-2.821-2.41,3.765,3.765,0,0,0-3.293-2.124l-1.829-.039c.025.478.077.949.143,1.415.019.131.042.259.064.389.054.324.119.644.193.961.036.154.069.309.109.461q.152.579.346,1.141c.076.219.165.433.25.648.067.171.136.341.209.508.109.249.223.5.345.739.043.086.089.169.133.254a16.152,16.152,0,0,0,.978,1.636v0a15.868,15.868,0,0,0,13.121,6.94c.109,0,.215-.014.324-.016A16.39,16.39,0,0,1,155.734,283.774Z" transform="translate(-56.495 -246.559)" fill="#a3d6c9"/>
    <path id="Path_72" data-name="Path 72" d="M168.435,442.576c-1.895,1.083-5.733,1.646-10.111,1.329-4.208-.3-7.808-1.342-9.608-2.616l-1.01,2.312a1.668,1.668,0,0,0,.276,1.737c1.373,1.555,5.45,2.9,10.342,3.253,5.52.4,10.2-.6,11.178-2.274a1.08,1.08,0,0,0,.055-.927Z" transform="translate(-56.306 -389.695)" fill="#b8eadd"/>
    <path id="Path_73" data-name="Path 73" d="M155.192,443.526a16.841,16.841,0,0,1-6.475-2.237l-1.01,2.312a1.669,1.669,0,0,0,.276,1.737c1.207,1.367,4.505,2.57,8.608,3.082Z" transform="translate(-56.307 -389.696)" fill="#5ce8c4"/>
    <path id="Path_74" data-name="Path 74" d="M241.23,429.668a18.277,18.277,0,0,1-3.408-.322,1.867,1.867,0,0,0-2.215,1.837v2.234h8.435V429.4A15.9,15.9,0,0,1,241.23,429.668Z" transform="translate(-134.044 -379.119)" fill="#fff"/>
    <g id="Group_53" data-name="Group 53" transform="translate(83.816 0)">
      <path id="Path_75" data-name="Path 75" d="M225.224,220.563a.877.877,0,1,0-1.518-.878,1,1,0,1,1-.865-1.5.877.877,0,1,0,0-1.754,2.751,2.751,0,1,0,2.383,4.128Z" transform="translate(-204.157 -191.13)" fill="#283c64"/>
      <path id="Path_76" data-name="Path 76" d="M335.067,221.938a2.761,2.761,0,0,0,2.383-1.375.877.877,0,1,0-1.518-.878,1,1,0,1,1-.865-1.5.877.877,0,0,0,0-1.754,2.751,2.751,0,1,0,0,5.5Z" transform="translate(-303.263 -191.13)" fill="#283c64"/>
      <path id="Path_77" data-name="Path 77" d="M278.065,287.384a3.684,3.684,0,0,0,4.952,0,.877.877,0,0,0-1.2-1.276,1.933,1.933,0,0,1-2.545,0,.877.877,0,0,0-1.2,1.276Z" transform="translate(-255.111 -252.447)" fill="#283c64"/>
      <path id="Path_78" data-name="Path 78" d="M219.484,191.735a.877.877,0,1,0-.028-1.753,17.2,17.2,0,0,0-6.886,1.31.877.877,0,0,0,.777,1.572A15.891,15.891,0,0,1,219.484,191.735Z" transform="translate(-197.087 -167.769)" fill="#283c64"/>
      <path id="Path_79" data-name="Path 79" d="M281.885,351.253a7.52,7.52,0,0,1-1.363.13,8.581,8.581,0,0,1-1.381-.121.877.877,0,0,0-.284,1.731,10.343,10.343,0,0,0,1.665.145,9.275,9.275,0,0,0,1.683-.159.877.877,0,0,0-.319-1.724Z" transform="translate(-255.404 -310.173)" fill="#283c64"/>
      <path id="Path_80" data-name="Path 80" d="M253.341,318.7a.877.877,0,0,0-1.65-.033l-.281.734a.876.876,0,0,0,1.4.971,18.55,18.55,0,0,0,8.113.01.876.876,0,0,0,1.272-1.078l-.262-.637a.877.877,0,0,0-1.646.068,15.356,15.356,0,0,1-3.4.337A14.833,14.833,0,0,1,253.341,318.7Z" transform="translate(-231.765 -280.91)" fill="#283c64"/>
      <path id="Path_81" data-name="Path 81" d="M153.422,431.464C153.429,431.447,153.413,431.481,153.422,431.464Z" transform="translate(-145.281 -381.015)" fill="#283c64"/>
      <path id="Path_82" data-name="Path 82" d="M122.371,7.142a7.525,7.525,0,0,0-5.44-3.4,8.072,8.072,0,0,0-3.741-1.882A6,6,0,0,0,108.709,0a9.288,9.288,0,0,0-3.339.629A8.975,8.975,0,0,0,101.914,0c-6.55,0-11.05,5.223-11.825,6.221a11.135,11.135,0,0,0-2.96,1.392,7.014,7.014,0,0,0-3.313,5.858c0,4.221,2.184,12.042,2.51,13.186a4.622,4.622,0,0,0,3.99,6.962h.177a16.712,16.712,0,0,0,2.694,7.465v8.037a2.649,2.649,0,0,0-1.232,1.329l-1.36,3.1-.008.018a2.56,2.56,0,0,0,.43,2.651c1.579,1.788,5.872,3.18,10.936,3.547.826.06,1.646.089,2.449.089a25.688,25.688,0,0,0,5.083-.463c2.915-.6,4.038-1.6,4.467-2.332a1.944,1.944,0,0,0,.118-1.682l0-.013-1.447-3.63a3.372,3.372,0,0,0-1.744-1.815v-1.8a14.022,14.022,0,0,0,10.309-13.5V22a7.33,7.33,0,0,0,.677.307.877.877,0,0,0,1.163-.57c.111-.382,2.689-9.411-.652-14.6Zm-8.819,3.572a7.888,7.888,0,0,0,.992-6.508,3.662,3.662,0,0,1,2.176,4.245c-.545,2.611-3.489,5.6-7.582,6.228a12.013,12.013,0,0,0,4.413-3.965ZM86.775,21.348a40.727,40.727,0,0,1-1.2-7.877,5.305,5.305,0,0,1,2.545-4.407,10.821,10.821,0,0,1,5.951-1.686.877.877,0,0,0,0-1.754c-.356,0-.712.016-1.065.043,1.733-1.608,4.915-3.913,8.914-3.913,2.71,0,4.537,1.076,5.146,3.029a5.583,5.583,0,0,1-2.247,5.975.877.877,0,1,0,1,1.443,7.3,7.3,0,0,0,2.925-7.94,5.627,5.627,0,0,0-1.43-2.37,7.452,7.452,0,0,1,1.4-.137,4.143,4.143,0,0,1,3.8,2.137,5.86,5.86,0,0,1-.446,5.893c-4.374,7-21.035,7.086-21.2,7.086a.877.877,0,0,0,0,1.754c.111,0,.609,0,1.388-.034v2.03A14.6,14.6,0,0,0,86.775,21.348Zm5.476,1.026v1.994H90.316a4.6,4.6,0,0,0-2.586.792c-.143-.529-.334-1.249-.542-2.086A12.4,12.4,0,0,1,92.251,22.373Zm20.182,33.637a.225.225,0,0,1,.007.168c-.264.45-1.271,1.08-3.308,1.5a26.725,26.725,0,0,1-7.05.342c-5.237-.379-8.724-1.8-9.748-2.959a.794.794,0,0,1-.125-.816l.645-1.476a8.057,8.057,0,0,0,2.238,1.181,25.876,25.876,0,0,0,6.927,1.346c.777.054,1.543.081,2.287.081a22.759,22.759,0,0,0,4.76-.449,7.571,7.571,0,0,0,2.552-.966Zm-17.491-4.02V43.3a16.753,16.753,0,0,0,12.244,5.315,14.064,14.064,0,0,0,1.935-.134v4.633c-.184.048-.385.1-.6.14a27.565,27.565,0,0,1-12.649-.886C95.506,52.239,95.2,52.112,94.942,51.991ZM121.6,20.223a9.6,9.6,0,0,1-3.5-4.674.877.877,0,0,0-1.672.528,11.873,11.873,0,0,0,3.005,4.694V23.16a23.3,23.3,0,0,0-6.314-.948.877.877,0,1,0-.028,1.753A21.082,21.082,0,0,1,119.43,25v9.612A12.258,12.258,0,0,1,107.186,46.86a15.054,15.054,0,0,1-15.01-14.17.877.877,0,0,0-.875-.826h-.984a2.872,2.872,0,1,1,0-5.744h1.935v1a.877.877,0,1,0,1.754,0v-8.63a46.829,46.829,0,0,0,11.343-2.14,12.57,12.57,0,0,0,2.217.2,12,12,0,0,0,6.415-1.839,9.714,9.714,0,0,0,4.458-5.9,5.587,5.587,0,0,0-.116-2.88A5.487,5.487,0,0,1,120.9,8.089c2.308,3.581,1.249,9.712.7,12.134Z" transform="translate(-83.816 0)" fill="#283c64"/>
    </g>
  </g>
</svg>
