<svg xmlns="http://www.w3.org/2000/svg" width="21.451" height="12.787" viewBox="0 0 21.451 12.787"><defs><style>.a{fill:#56ce97;}</style></defs><g transform="translate(0 -98.725)"><path class="a" d="M10.726,98.725c-4.1,0-7.815,2.242-10.558,5.884a.849.849,0,0,0,0,1.014c2.743,3.646,6.459,5.889,10.558,5.889s7.815-2.242,10.558-5.884a.849.849,0,0,0,0-1.014C18.541,100.967,14.824,98.725,10.726,98.725Zm.294,10.9a4.512,4.512,0,1,1,4.208-4.208A4.514,4.514,0,0,1,11.02,109.621Zm-.136-2.08a2.429,2.429,0,1,1,2.269-2.269A2.425,2.425,0,0,1,10.884,107.541Z" transform="translate(0 0)"/></g></svg>