<svg xmlns="http://www.w3.org/2000/svg" width="25.035" height="34" viewBox="0 0 25.035 34"><defs><style>.a{fill:#8b8b8b;}</style></defs><g transform="translate(-12.883)"><path class="a" d="M25.4,0A12.532,12.532,0,0,0,12.883,12.518a12.21,12.21,0,0,0,1.095,5.109c3.13,6.848,9.13,14.078,10.895,16.131a.7.7,0,0,0,1.056,0c1.764-2.052,7.764-9.282,10.895-16.131a12.2,12.2,0,0,0,1.095-5.109A12.533,12.533,0,0,0,25.4,0Zm0,19.019a6.5,6.5,0,1,1,6.5-6.5A6.51,6.51,0,0,1,25.4,19.019Z" transform="translate(0 0)"/></g></svg>