<svg xmlns="http://www.w3.org/2000/svg" width="21.754" height="21.754" viewBox="0 0 21.754 21.754">
  <g id="add" transform="translate(-0.001 10.877) rotate(-45)">
    <g id="Group_47" data-name="Group 47" transform="translate(0 0.001)">
      <path id="Path_44" data-name="Path 44" d="M14.548,6.619H8.765V.836A1.037,1.037,0,0,0,7.691,0,1.037,1.037,0,0,0,6.618.836V6.619H.835A1.037,1.037,0,0,0,0,7.692,1.037,1.037,0,0,0,.835,8.766H6.618v5.783a1.037,1.037,0,0,0,1.073.835,1.037,1.037,0,0,0,1.073-.835V8.766h5.783a1.037,1.037,0,0,0,.835-1.073A1.037,1.037,0,0,0,14.548,6.619Z" transform="translate(0 -0.001)" fill="#ff6464"/>
    </g>
  </g>
</svg>
