<svg xmlns="http://www.w3.org/2000/svg" width="21.225" height="12.817" viewBox="0 0 21.225 12.817"><defs><style>.a{fill:#838383;}</style></defs><g transform="translate(1 12.817) rotate(-90)"><g transform="translate(0 0)"><g transform="translate(0 0)"><path class="a" d="M7.776,3.439l-3.2-3.2h0Q4.543.206,4.513.181L4.484.16,4.45.135,4.415.114,4.383.095,4.346.077,4.312.061,4.276.048,4.238.034,4.2.025l-.04-.01L4.119.009,4.084,0a.806.806,0,0,0-.158,0L3.891.009,3.849.015l-.04.01L3.773.034,3.735.048,3.7.061,3.664.077,3.628.095,3.6.114,3.561.135,3.526.16,3.5.181q-.03.025-.058.053h0l-3.2,3.2A.8.8,0,0,0,1.368,4.572L3.2,2.735v9.281a.8.8,0,1,0,1.6,0V2.735L6.643,4.572A.8.8,0,1,0,7.776,3.439Z" transform="translate(4.806 -1)"/><path class="a" d="M6.643,8.245,4.806,10.082V.8A.8.8,0,1,0,3.2.8v9.281L1.368,8.245A.8.8,0,0,0,.235,9.378l3.2,3.2h0c.019.018.038.036.058.053l.029.021.034.025L3.6,12.7l.032.019.036.018.035.016.036.013.038.013.036.009.04.01.042.006.035.005a.805.805,0,0,0,.158,0l.035-.005.042-.006.04-.01.036-.009.038-.013.036-.013.035-.016.036-.018.032-.019.035-.021.034-.025.029-.021c.02-.016.039-.034.058-.052h0l3.2-3.2A.8.8,0,1,0,6.643,8.245Z" transform="translate(0 7.408)"/></g></g></g></svg>