<svg xmlns="http://www.w3.org/2000/svg" width="99" height="23" viewBox="0 0 99 23"><defs><linearGradient id="a" x1="100%" x2="0%" y1="100%" y2="0%"><stop offset="0%" stop-color="#FFE75A"/><stop offset="100%" stop-color="#F7CB3D"/></linearGradient></defs><g fill="none" fill-rule="evenodd"><path fill="url(#a)" fill-rule="nonzero" d="M.456 0h4.755c.402 0 .607.484.325.769L.793 5.53a.454.454 0 0 1-.778-.316L0 .454C0 .204.201 0 .456 0zm16.095 17h-4.762a.452.452 0 0 1-.325-.769l4.742-4.762a.454.454 0 0 1 .778.316L17 16.546a.445.445 0 0 1-.45.454zM.707 12.88L12.883.707a2.408 2.408 0 0 1 3.41 0c.943.943.943 2.47 0 3.409L4.117 16.293c-.94.943-2.47.943-3.41 0a2.411 2.411 0 0 1 0-3.413z" transform="translate(82 5)"/><path fill="#303030" d="M70.342 10.08c.916 0 1.658.724 1.658 1.617v8.687c0 .892-.742 1.616-1.658 1.616-.916 0-1.658-.724-1.658-1.616v-8.687c0-.893.742-1.616 1.658-1.616zm-56.17-7.484l.112 9.035v3.338c0 3.874-3.203 7.026-7.142 7.026C3.204 21.995 0 18.843 0 14.97v-3.15c0-.892.742-1.615 1.658-1.615.916 0 1.658.723 1.658 1.616v3.149c0 2.092 1.716 3.795 3.826 3.795 2.11 0 3.827-1.703 3.827-3.795v-3.253l-.112-9.081c-.011-.892.722-1.624 1.658-1.635.907 0 1.647.71 1.658 1.596zm33.609 7.485h7.188c.915 0 1.657.723 1.657 1.616 0 .891-.742 1.615-1.657 1.615H47.78v1.384c0 4.024-3.361 7.3-7.493 7.3-4.13 0-7.492-3.276-7.492-7.3v-2.877c0-.892.742-1.615 1.658-1.615.916 0 1.658.723 1.658 1.615v2.877c0 2.243 1.874 4.068 4.176 4.068 2.303 0 4.177-1.825 4.177-4.068V9.349c0-.892.742-1.615 1.658-1.615.916 0 1.658.723 1.658 1.615v.732zm-27.258 0h6.012c.915 0 1.658.723 1.658 1.615s-.743 1.616-1.658 1.616h-7.65c-.114 0-.226-.012-.333-.033-.03-.006-.056-.018-.084-.025-.077-.02-.154-.04-.226-.069-.036-.014-.067-.035-.101-.053-.061-.03-.124-.058-.18-.094-.033-.022-.062-.05-.093-.074-.052-.04-.105-.078-.152-.122-.028-.028-.05-.06-.076-.089-.043-.049-.089-.096-.126-.15-.023-.032-.039-.069-.059-.102-.033-.056-.068-.11-.095-.17-.017-.04-.026-.082-.04-.123-.02-.06-.044-.117-.057-.179-.01-.045-.01-.094-.017-.14-.006-.058-.019-.114-.02-.173l-.11-9.081c-.012-.892.721-1.624 1.658-1.635.906 0 1.646.71 1.657 1.596l.092 7.485zm42.477 0c.915 0 1.658.723 1.658 1.616v8.687c0 .892-.743 1.616-1.658 1.616-.916 0-1.658-.724-1.658-1.616v-8.687c0-.893.742-1.616 1.658-1.616zm-22.713 3.133c-.408 0-.812-.162-1.1-.442a1.514 1.514 0 0 1-.458-1.076c0-.398.166-.79.459-1.07.575-.566 1.623-.57 2.203 0 .288.28.454.672.454 1.07s-.166.79-.454 1.076c-.292.28-.69.442-1.104.442zm30.052-5.075c-.408 0-.811-.162-1.1-.442a1.535 1.535 0 0 1-.458-1.076c0-.397.172-.79.459-1.07a1.605 1.605 0 0 1 1.407-.418 1.663 1.663 0 0 1 .56.226c.086.059.166.123.236.192.288.28.455.673.455 1.07a1.52 1.52 0 0 1-.691 1.263 1.997 1.997 0 0 1-.268.142 1.63 1.63 0 0 1-.6.113zM24.405 19.733c.04.093.065.187.086.285.02.098.035.196.035.295 0 .098-.015.201-.035.3-.02.093-.046.19-.086.28-.04.093-.086.181-.14.265a2.18 2.18 0 0 1-.198.23c-.07.07-.151.133-.237.187a1.96 1.96 0 0 1-.267.143 1.968 1.968 0 0 1-.293.083 1.575 1.575 0 0 1-.61 0 1.916 1.916 0 0 1-.287-.083 1.755 1.755 0 0 1-.272-.143 1.479 1.479 0 0 1-.43-.417 1.746 1.746 0 0 1-.145-.266 1.51 1.51 0 0 1 0-1.16c.04-.088.09-.176.146-.26a1.43 1.43 0 0 1 .191-.23 1.8 1.8 0 0 1 .238-.192 1.67 1.67 0 0 1 .56-.226 1.593 1.593 0 0 1 1.169.226 1.691 1.691 0 0 1 .434.422c.055.084.1.172.14.26zm26.738-3.749h4.46c.716 0 1.297.567 1.297 1.265 0 .699-.58 1.265-1.298 1.265h-4.459c-.717 0-1.297-.566-1.297-1.265 0-.698.58-1.265 1.297-1.265zm-25.947-.506c.717 0 1.298.566 1.298 1.265 0 .698-.58 1.264-1.298 1.264h-4.459c-.717 0-1.298-.566-1.298-1.264 0-.699.581-1.265 1.298-1.265h4.46z"/></g></svg>